<?xml version="1.0" encoding="UTF-8" standalone="no"?><!DOCTYPE svg PUBLIC "-//W3C//DTD SVG 1.1//EN" "http://www.w3.org/Graphics/SVG/1.1/DTD/svg11.dtd"><svg width="100%" height="100%" viewBox="0 0 57 57" version="1.1" xmlns="http://www.w3.org/2000/svg" xmlns:xlink="http://www.w3.org/1999/xlink" xml:space="preserve" xmlns:serif="http://www.serif.com/" style="fill-rule:evenodd;clip-rule:evenodd;stroke-linejoin:round;stroke-miterlimit:2;"><g><path d="M28.075,0c-15.506,0 -28.075,12.569 -28.075,28.075c0,15.505 12.569,28.074 28.075,28.074c15.505,0 28.074,-12.569 28.074,-28.074c-0.016,-15.499 -12.576,-28.058 -28.074,-28.075Zm11.823,28.969c-0.194,0.39 -0.51,0.706 -0.9,0.901l0,0.01l-16.043,8.021c-0.991,0.495 -2.195,0.093 -2.69,-0.898c-0.141,-0.281 -0.213,-0.592 -0.212,-0.907l0,-16.043c0,-1.107 0.897,-2.005 2.005,-2.006c0.311,0 0.619,0.072 0.897,0.212l16.043,8.021c0.991,0.494 1.394,1.698 0.9,2.689Z" style="fill:#fefffe;fill-rule:nonzero;"/></g></svg>