<?xml version="1.0" encoding="UTF-8" standalone="no"?><!DOCTYPE svg PUBLIC "-//W3C//DTD SVG 1.1//EN" "http://www.w3.org/Graphics/SVG/1.1/DTD/svg11.dtd"><svg width="100%" height="100%" viewBox="0 0 1337 1351" version="1.1" xmlns="http://www.w3.org/2000/svg" xmlns:xlink="http://www.w3.org/1999/xlink" xml:space="preserve" xmlns:serif="http://www.serif.com/" style="fill-rule:evenodd;clip-rule:evenodd;stroke-linejoin:round;stroke-miterlimit:2;"><path d="M677.984,105.347c-305.456,-0 -553.075,247.619 -553.075,553.075c0,178.884 107.785,328.1 107.785,328.1l-67.478,201.334l207.959,-67.856c-0,0 135.516,91.5 304.809,91.5c305.457,0 553.082,-247.622 553.082,-553.078c-0,-305.456 -247.625,-553.075 -553.082,-553.075Z" style="fill:url(#_Linear1);"/><path d="M677.984,1211.5c-169.293,0 -304.809,-91.5 -304.809,-91.5l-207.959,67.856l67.478,-201.334c-0,-0 -107.785,-149.216 -107.785,-328.1c0,-305.456 247.619,-553.075 553.075,-553.075c305.457,-0 553.082,247.619 553.082,553.075c-0,305.456 -247.625,553.078 -553.082,553.078Zm0,-1211.5c-363.637,0 -658.425,294.784 -658.425,658.422c0,180.475 95.55,341.791 95.55,341.791l-115.109,350.615l360.775,-115.294c-0,0 133.934,81.313 317.209,81.313c363.641,-0 658.428,-294.788 658.428,-658.425c0,-363.638 -294.787,-658.422 -658.428,-658.422Z" style="fill:#fff;fill-rule:nonzero;"/><path d="M427.256,371.772c0,-0 17.791,-11.275 27.066,-11.275l51.869,-0c-0,-0 13.906,2.422 20.296,16.916c6.391,14.49 50.122,117.243 53.376,125.171c3.253,7.925 11.74,27.538 -1.879,45.104c-13.618,17.568 -42.1,50.368 -42.1,50.368c0,0 -11.275,10.153 -1.503,26.316c9.772,16.159 44.141,69.478 89.091,109.759c44.947,40.282 99.991,69.913 127.425,78.935c27.441,9.022 33.453,-3.007 43.975,-16.538c10.528,-13.531 43.231,-54.878 43.231,-54.878c0,0 11.281,-16.537 33.453,-6.391c22.182,10.147 130.053,62.397 130.053,62.397c0,0 13.154,2.26 13.907,16.916c0.75,14.659 9.784,58.525 -29.316,100.731c-39.1,42.206 -122.253,61.738 -161.622,50.731c-39.375,-11.006 -169.544,-45.062 -254.44,-124.231c-84.897,-79.169 -153.647,-162.503 -181.772,-223.959c-28.125,-61.456 -26.563,-97.916 -25,-115.103c1.562,-17.188 10.593,-96.832 63.89,-130.969Z" style="fill:#fff;fill-rule:nonzero;"/><defs><linearGradient id="_Linear1" x1="0" y1="0" x2="1" y2="0" gradientUnits="userSpaceOnUse" gradientTransform="matrix(-4.83516e-05,-1106.15,1106.15,-4.83516e-05,677.987,1211.5)"><stop offset="0" style="stop-color:#59ba4b;stop-opacity:1"/><stop offset="0.5" style="stop-color:#22a049;stop-opacity:1"/><stop offset="1" style="stop-color:#59ba4b;stop-opacity:1"/></linearGradient></defs></svg>