<?xml version="1.0" encoding="UTF-8" standalone="no"?><!DOCTYPE svg PUBLIC "-//W3C//DTD SVG 1.1//EN" "http://www.w3.org/Graphics/SVG/1.1/DTD/svg11.dtd"><svg width="100%" height="100%" viewBox="0 0 339 226" version="1.1" xmlns="http://www.w3.org/2000/svg" xmlns:xlink="http://www.w3.org/1999/xlink" xml:space="preserve" xmlns:serif="http://www.serif.com/" style="fill-rule:evenodd;clip-rule:evenodd;stroke-linejoin:round;stroke-miterlimit:2;"><path d="M78.818,225.145l-24.051,-0c0,-0 -27.286,-133.956 -35.44,-173.986c-1.324,-6.497 -7.038,-11.165 -13.67,-11.165l-2.611,-0c-1.457,-0 -2.714,-1.027 -3.005,-2.455l-0,-0c-0.121,-0.594 0.031,-1.211 0.415,-1.681c0.383,-0.469 0.957,-0.742 1.564,-0.742l38.09,0l38.708,190.029Z" style="fill:#bea57b;"/><path d="M130.871,123.954l24.051,-0l20.613,101.191l-24.051,-0l-20.613,-101.191Z" style="fill:#bea57b;"/><path d="M338.285,37.571c0.12,0.594 -0.032,1.211 -0.415,1.68c-0.384,0.47 -0.958,0.743 -1.565,0.743l-4.422,-0c-4.675,-0 -9.039,2.342 -11.624,6.238c-21.417,32.286 -118.683,178.913 -118.683,178.913l-48.554,-0l126.056,-190.029l56.201,0c1.458,0 2.715,1.026 3.006,2.455Z" style="fill:#bea57b;"/><path d="M164.936,225.145l-110.169,-0l122.652,-184.896l-55.212,0.001c-0.022,-0.002 -0.045,-0.003 -0.068,-0.005l-25.941,0l-0.13,-0.001c-11.047,-0.069 -20.133,-9.059 -20.304,-20.121c-0.172,-11.106 8.705,-20.123 19.811,-20.123c10.723,0 19.628,8.405 20.384,18.981c0.024,0.32 0.04,0.654 0.047,1.005l0.001,0.012c0.001,0.041 0.002,0.083 0.002,0.125c0.122,7.869 2.011,14.039 6.989,14.993l61.962,-0l0.012,0.001l48.571,-0l-122.652,184.895l53.097,-0c4.947,-0.954 6.645,-7.124 6.523,-14.993c-0.001,-0.042 -0.001,-0.084 -0.001,-0.125l-0,-0.013c-0.003,-0.35 0.002,-0.685 0.015,-1.004c0.429,-10.576 9.075,-18.981 19.797,-18.981c11.106,0 20.262,9.017 20.434,20.123c0.172,11.062 -8.635,20.051 -19.681,20.121l-0.129,0.001l-25.941,-0c-0.023,0.001 -0.045,0.003 -0.069,0.004Z" style="fill:#2d4565;"/></svg>