<?xml version="1.0" encoding="UTF-8" standalone="no"?><!DOCTYPE svg PUBLIC "-//W3C//DTD SVG 1.1//EN" "http://www.w3.org/Graphics/SVG/1.1/DTD/svg11.dtd"><svg width="100%" height="100%" viewBox="0 0 453 301" version="1.1" xmlns="http://www.w3.org/2000/svg" xmlns:xlink="http://www.w3.org/1999/xlink" xml:space="preserve" xmlns:serif="http://www.serif.com/" style="fill-rule:evenodd;clip-rule:evenodd;stroke-linejoin:round;stroke-miterlimit:2;"><g><path d="M105.694,300.193l-32.068,0c0,0 -36.381,-178.607 -47.254,-231.981c-1.764,-8.663 -9.384,-14.887 -18.225,-14.887l-3.482,0c-1.944,0 -3.619,-1.369 -4.007,-3.273c-0.161,-0.792 0.042,-1.615 0.553,-2.241c0.511,-0.626 1.277,-0.989 2.085,-0.989l50.787,0l51.611,253.371Z" style="fill:#fff;"/><path d="M175.098,165.272l32.068,0l27.483,134.921l-32.068,0l-27.483,-134.921Z" style="fill:#fff;"/><path d="M451.649,50.095c0.162,0.792 -0.042,1.614 -0.553,2.24c-0.511,0.626 -1.277,0.99 -2.085,0.99l-5.896,0c-6.234,0 -12.054,3.123 -15.5,8.318c-28.556,43.048 -158.244,238.55 -158.244,238.55l-64.739,0l168.076,-253.371l74.934,0c1.944,0 3.619,1.368 4.007,3.273Z" style="fill:#fff;"/><path d="M220.519,300.193l-146.893,0l163.536,-246.527l-73.615,0c-0.031,-0.002 -0.061,-0.004 -0.092,-0.006l-34.587,0l-0.174,-0.001c-14.729,-0.093 -26.843,-12.079 -27.072,-26.829c-0.229,-14.808 11.607,-26.83 26.415,-26.83c14.297,0 26.17,11.207 27.179,25.308c0.031,0.426 0.053,0.872 0.063,1.34l0,0.016c0.001,0.055 0.002,0.11 0.003,0.166c0.163,10.493 2.682,18.719 9.318,19.991l82.617,0l0.015,0.001l64.762,0l-163.535,246.527l70.794,0c6.597,-1.272 8.861,-9.498 8.699,-19.991c-0.001,-0.056 -0.002,-0.111 -0.002,-0.166l0,-0.017c-0.005,-0.467 0.002,-0.914 0.021,-1.339c0.572,-14.101 12.098,-25.308 26.395,-25.308c14.808,0 27.016,12.022 27.246,26.83c0.228,14.75 -11.515,26.736 -26.241,26.829l-0.174,0.001l-34.587,0c-0.03,0.002 -0.061,0.004 -0.091,0.005Z" style="fill:#fff;"/></g></svg>